<?xml version="1.0" encoding="UTF-8"?>
<svg id="Layer_1" data-name="Layer 1" xmlns="http://www.w3.org/2000/svg" viewBox="0 0 682.67 682.67">
  <defs>
    <style>
      .cls-1 {
        fill: #040404;
      }
    </style>
  </defs>
  <path class="cls-1" d="m539.66,260.54c-11.07-67.68-70.34-119.06-140.02-119.06-55.36,0-105.11,32.13-128.33,81.42-15.05-8.65-31.76-13.17-49.1-13.17-49.38,0-90.5,35.67-98.61,83.28-50.25,1.12-90.78,42.34-90.78,92.84s41.66,92.87,92.87,92.87h85.77c6.81,0,12.34-5.52,12.34-12.34s-5.53-12.34-12.34-12.34h-85.77c-37.6,0-68.19-30.59-68.19-68.19s30.59-68.19,68.19-68.19c1.57,0,3.08.24,4.59.45l2.94.37c3.39.34,6.78-.68,9.38-2.89,2.59-2.23,4.15-5.42,4.3-8.83,1.8-40.58,34.88-72.36,75.31-72.36,17,0,33.27,5.84,47.06,16.92,3.13,2.51,7.31,3.37,11.17,2.22,3.86-1.12,6.94-4.06,8.24-7.87,16.2-47.55,60.8-79.51,110.96-79.51,60.97,0,112.3,47.64,116.86,108.45.25,3.36,1.87,6.47,4.48,8.62s5.95,3.1,9.33,2.7c3.43-.42,6.9-.71,10.44-.71,46.54,0,84.41,37.86,84.41,84.41s-37.86,84.42-84.41,84.42h-69.55c-6.81,0-12.34,5.52-12.34,12.34s5.53,12.34,12.34,12.34h69.55c60.15,0,109.09-48.94,109.09-109.1s-49.67-109.93-110.18-109.07Z"/>
  <path class="cls-1" d="m371.99,391.56c-6.81,0-12.34,5.52-12.34,12.34v124.95c0,4.99,3.01,9.5,7.62,11.4,1.53.64,3.13.94,4.72.94,3.21,0,6.36-1.25,8.73-3.62l41.26-41.26c4.82-4.82,4.82-12.63,0-17.45s-12.63-4.82-17.45,0l-20.2,20.2v-95.16c0-6.82-5.53-12.34-12.34-12.34Z"/>
  <path class="cls-1" d="m310.68,541.19c6.81,0,12.34-5.52,12.34-12.34v-124.95c0-4.99-3.01-9.5-7.62-11.4-4.63-1.94-9.92-.86-13.45,2.68l-41.26,41.26c-4.82,4.82-4.82,12.63,0,17.45,4.82,4.82,12.63,4.82,17.45,0l20.2-20.2v95.16c0,6.82,5.53,12.34,12.34,12.34Z"/>
</svg>