<?xml version="1.0" encoding="UTF-8"?>
<svg id="Layer_1" data-name="Layer 1" xmlns="http://www.w3.org/2000/svg" viewBox="0 0 1920 1080">
  <defs>
    <style>
      .cls-1 {
        fill: #ec0083;
      }

      .cls-1, .cls-2, .cls-3 {
        stroke: #212529;
        stroke-miterlimit: 10;
      }

      .cls-1, .cls-3 {
        stroke-width: 3.53px;
      }

      .cls-4 {
        fill: #212529;
      }

      .cls-5 {
        fill: #ea2d2d;
      }

      .cls-6 {
        fill: none;
        stroke: #0098ff;
        stroke-linecap: round;
        stroke-linejoin: round;
        stroke-width: 17.04px;
      }

      .cls-7 {
        fill: #157715;
      }

      .cls-2 {
        fill: #fff;
        stroke-width: 5px;
      }

      .cls-8 {
        fill: #ffc5e8;
      }

      .cls-3 {
        fill: #fd0;
      }
    </style>
  </defs>
  <g>
    <circle class="cls-8" cx="993.26" cy="551.24" r="458.74"/>
    <g>
      <g>
        <ellipse class="cls-1" cx="993.26" cy="654.53" rx="244.16" ry="37.56"/>
        <path class="cls-2" d="m1237.42,654.53v140.86c0,20.75-109.31,37.56-244.16,37.56s-244.16-16.81-244.16-37.56v-140.86c0,20.75,109.31,37.56,244.16,37.56s244.16-16.81,244.16-37.56Z"/>
        <path class="cls-6" d="m804.75,743.75c17.69,2.7,35.93,5.07,54.7,7.04,67.72,7.11,130.73,7.79,187.81,4.7"/>
        <circle class="cls-5" cx="1169.33" cy="746.09" r="16.43"/>
      </g>
      <g>
        <ellipse class="cls-1" cx="993.26" cy="480.81" rx="244.16" ry="37.56"/>
        <path class="cls-2" d="m1237.42,480.81v140.86c0,20.75-109.31,37.56-244.16,37.56s-244.16-16.81-244.16-37.56v-140.86c0,20.75,109.31,37.56,244.16,37.56s244.16-16.81,244.16-37.56Z"/>
        <path class="cls-6" d="m804.75,570.02c17.69,2.7,35.93,5.07,54.7,7.04,67.72,7.11,130.73,7.79,187.81,4.7"/>
        <circle class="cls-7" cx="1169.33" cy="572.37" r="16.43"/>
      </g>
      <g>
        <ellipse class="cls-1" cx="993.26" cy="307.08" rx="244.16" ry="37.56"/>
        <path class="cls-2" d="m1237.42,307.08v140.86c0,20.75-109.31,37.56-244.16,37.56s-244.16-16.81-244.16-37.56v-140.86c0,20.75,109.31,37.56,244.16,37.56s244.16-16.81,244.16-37.56Z"/>
        <path class="cls-6" d="m804.75,396.29c17.69,2.7,35.93,5.07,54.7,7.04,67.72,7.11,130.73,7.79,187.81,4.7"/>
        <circle class="cls-5" cx="1169.33" cy="398.64" r="16.43"/>
      </g>
    </g>
  </g>
  <g>
    <path class="cls-3" d="m637.61,80.79c8.29-14.36,29.03-14.36,37.32,0l83.35,144.36,83.35,144.36c8.29,14.36-2.07,32.32-18.66,32.32h-333.39c-16.59,0-26.95-17.96-18.66-32.32l83.35-144.36,83.35-144.36Z"/>
    <path class="cls-4" d="m656.14,359.17c-4.01,0-7.54-1.61-10.59-4.84-3.05-3.22-4.57-7.19-4.57-11.89s1.57-8.71,4.7-12.02c3.14-3.31,6.71-4.97,10.72-4.97,4.36,0,7.97,1.66,10.85,4.97,2.88,3.31,4.31,7.32,4.31,12.02s-1.57,8.67-4.7,11.89c-3.14,3.22-6.71,4.84-10.72,4.84Zm-4.71-64.3l-10.19-107.95c-.35-4.53.74-8.84,3.26-12.94,2.52-4.09,6.49-6.14,11.89-6.14s9.54,2.05,11.9,6.14c2.35,4.09,3.35,8.41,3.01,12.94l-10.19,107.95h-9.67Z"/>
  </g>
</svg>