<?xml version="1.0" encoding="UTF-8"?>
<svg id="Layer_1" data-name="Layer 1" xmlns="http://www.w3.org/2000/svg" xmlns:xlink="http://www.w3.org/1999/xlink" viewBox="0 0 1920 1080">
  <defs>
    <style>
      .cls-1 {
        fill: #282828;
        stroke-miterlimit: 10;
      }

      .cls-1, .cls-2 {
        stroke: #282828;
        stroke-width: 5px;
      }

      .cls-3 {
        fill: url(#linear-gradient-2);
      }

      .cls-3, .cls-4, .cls-5, .cls-6, .cls-7, .cls-8, .cls-9 {
        stroke-width: 0px;
      }

      .cls-3, .cls-7, .cls-8 {
        opacity: .4;
      }

      .cls-4 {
        fill: none;
      }

      .cls-5 {
        fill: #ffc5e8;
      }

      .cls-6 {
        fill: #ec0083;
      }

      .cls-7 {
        fill: url(#linear-gradient);
      }

      .cls-8 {
        fill: url(#linear-gradient-3);
      }

      .cls-10 {
        clip-path: url(#clippath);
      }

      .cls-9 {
        fill: #212529;
      }

      .cls-2 {
        fill: #fff;
        stroke-linecap: round;
        stroke-linejoin: round;
      }
    </style>
    <clipPath id="clippath">
      <circle class="cls-4" cx="960" cy="540" r="468"/>
    </clipPath>
    <linearGradient id="linear-gradient" x1="966.17" y1="833.93" x2="966.17" y2="252.34" gradientUnits="userSpaceOnUse">
      <stop offset="0" stop-color="#fff" stop-opacity="0"/>
      <stop offset="1" stop-color="#ec0083"/>
    </linearGradient>
    <linearGradient id="linear-gradient-2" x1="1068.8" y1="504.08" x2="1013.46" y2="316.23" gradientUnits="userSpaceOnUse">
      <stop offset="0" stop-color="#fff" stop-opacity="0"/>
      <stop offset=".99" stop-color="#ec0083"/>
    </linearGradient>
    <linearGradient id="linear-gradient-3" x1="829.35" y1="837.75" x2="829.35" y2="252.41" gradientUnits="userSpaceOnUse">
      <stop offset="0" stop-color="#fff" stop-opacity="0"/>
      <stop offset="1" stop-color="#ec0083"/>
    </linearGradient>
  </defs>
  <circle class="cls-5" cx="960" cy="540" r="468"/>
  <g class="cls-10">
    <g>
      <rect class="cls-2" x="1008.75" y="996.75" width="506.5" height="28" transform="translate(251.25 2272.75) rotate(-90)"/>
      <rect class="cls-2" x="689.25" y="996.75" width="506.5" height="28" transform="translate(-68.25 1953.25) rotate(-90)"/>
      <rect class="cls-2" x="369.75" y="996.75" width="506.5" height="28" transform="translate(-387.75 1633.75) rotate(-90)"/>
      <g>
        <rect class="cls-1" x="357.75" y="725" width="1168" height="63"/>
        <g>
          <g>
            <circle class="cls-2" cx="1358.75" cy="756.5" r="32"/>
            <circle class="cls-2" cx="1358.75" cy="756.5" r="19"/>
          </g>
          <g>
            <circle class="cls-2" cx="1219.75" cy="756.5" r="32"/>
            <circle class="cls-2" cx="1219.75" cy="756.5" r="19"/>
          </g>
          <g>
            <circle class="cls-2" cx="1080.75" cy="756.5" r="32"/>
            <circle class="cls-2" cx="1080.75" cy="756.5" r="19"/>
          </g>
          <g>
            <circle class="cls-2" cx="941.75" cy="756.5" r="32"/>
            <circle class="cls-2" cx="941.75" cy="756.5" r="19"/>
          </g>
          <g>
            <circle class="cls-2" cx="802.75" cy="756.5" r="32"/>
            <circle class="cls-2" cx="802.75" cy="756.5" r="19"/>
          </g>
          <g>
            <circle class="cls-2" cx="663.75" cy="756.5" r="32"/>
            <circle class="cls-2" cx="663.75" cy="756.5" r="19"/>
          </g>
          <g>
            <circle class="cls-2" cx="524.75" cy="756.5" r="32"/>
            <circle class="cls-2" cx="524.75" cy="756.5" r="19"/>
          </g>
        </g>
      </g>
      <rect class="cls-1" x="357.75" y="62.5" width="1168" height="108.5"/>
      <polygon class="cls-7" points="966.17 242 692.53 715.95 1239.8 715.95 966.17 242"/>
      <path class="cls-3" d="m966.17,242c32.99,125.93,65.97,251.86,98.96,377.78,21.88-11.19,43.76-22.39,65.64-33.58-54.87-114.73-109.73-229.47-164.6-344.2Z"/>
      <path class="cls-8" d="m966.17,242l-273.63,473.95c49.91,1.02,99.83,2.04,149.74,3.05,41.3-159,82.6-318,123.89-477Z"/>
      <rect class="cls-2" x="799.67" y="171.5" width="333" height="113"/>
      <rect class="cls-2" x="835.67" y="171.5" width="261" height="126"/>
    </g>
  </g>
  <g>
    <path class="cls-2" d="m1559,254.34v194.89c0,21.95-17.8,39.76-39.76,39.76h-27.13c-16.83,16.81-33.65,33.65-50.48,50.47,3.08-5.46,9.49-18.64,8.55-36.27-.28-5.27-1.17-10.03-2.35-14.19h-241.76c-21.95,0-39.76-17.8-39.76-39.76v-194.89c0-21.95,17.8-39.76,39.76-39.76h313.17c21.95,0,39.76,17.8,39.76,39.76Z"/>
    <g>
      <path class="cls-6" d="m1366.83,432.91c-5.23,0-9.34-1.52-12.23-4.52-2.87-2.98-4.33-6.72-4.33-11.12,0-4.7,1.52-8.58,4.52-11.53,2.99-2.94,7.04-4.43,12.04-4.43s9.17,1.53,12.16,4.56c2.99,3.02,4.51,6.86,4.51,11.41s-1.48,8.15-4.39,11.13c-2.92,2.99-7.05,4.51-12.28,4.51Zm-14.72-47.4v-1.77c0-9.77,1.25-17.71,3.7-23.59,2.46-5.89,7.33-12.39,14.49-19.34,6.89-6.68,11.29-11.47,13.08-14.23,2.68-4.08,4.03-8.54,4.03-13.27,0-6.26-1.53-11.06-4.54-14.26-2.99-3.17-7.51-4.78-13.45-4.78s-10.28,1.55-13.76,4.75c-3.43,3.16-5.1,7.36-5.1,12.85v1.77h-29.79l.02-1.79c.15-13.22,4.73-23.84,13.62-31.58,8.82-7.67,20.6-11.57,35.01-11.57s26.64,3.86,35.04,11.48c8.44,7.66,12.73,18.47,12.73,32.11,0,12.16-5.69,24.25-16.91,35.92l-13.27,13.06c-4.42,5.05-6.73,12.62-6.86,22.48l-.02,1.74h-28.02Z"/>
      <path class="cls-9" d="m1369.42,270.47c14.47,0,25.75,3.68,33.85,11.02,8.1,7.35,12.15,17.62,12.15,30.8,0,11.74-5.47,23.31-16.41,34.69l-13.28,13.08c-4.75,5.41-7.2,13.3-7.34,23.67h-24.51c0-9.58,1.19-17.22,3.56-22.91,2.38-5.69,7.07-11.94,14.09-18.75,7.02-6.81,11.46-11.66,13.33-14.54,2.88-4.38,4.32-9.13,4.32-14.23,0-6.76-1.67-11.91-5.02-15.47-3.35-3.56-8.26-5.34-14.74-5.34s-11.18,1.74-14.95,5.22c-3.78,3.48-5.67,8.2-5.67,14.15h-26.24c.14-12.75,4.48-22.84,13.01-30.26,8.53-7.42,19.81-11.13,33.85-11.13m-2.59,132.59c4.6,0,8.24,1.34,10.9,4.03,2.66,2.69,3.99,6.08,3.99,10.16s-1.29,7.24-3.89,9.89c-2.59,2.65-6.26,3.98-11.01,3.98s-8.41-1.33-10.96-3.98c-2.56-2.65-3.83-5.95-3.83-9.89,0-4.23,1.33-7.65,3.99-10.27,2.66-2.62,6.26-3.93,10.8-3.93m2.59-136.13c-14.85,0-27.02,4.04-36.17,12-9.29,8.08-14.07,19.15-14.23,32.89l-.04,3.57h33.35v-3.53c0-4.97,1.48-8.74,4.53-11.55,3.13-2.88,7.24-4.29,12.56-4.29s9.49,1.38,12.17,4.22c2.69,2.86,4.06,7.25,4.06,13.05,0,4.44-1.22,8.46-3.74,12.29-1.19,1.84-4.38,5.73-12.84,13.94-7.44,7.21-12.31,13.73-14.89,19.93-2.54,6.1-3.84,14.27-3.84,24.27v3.53h31.53l.05-3.49c.13-9.4,2.28-16.56,6.38-21.29l13.19-12.98.03-.03.03-.04c11.55-12.01,17.4-24.51,17.4-37.14,0-14.16-4.48-25.41-13.31-33.42-8.73-7.92-20.92-11.94-36.23-11.94h0Zm-2.59,132.59c-5.47,0-9.94,1.66-13.28,4.94-3.35,3.3-5.05,7.6-5.05,12.79,0,4.87,1.62,9.03,4.82,12.35,3.23,3.36,7.78,5.06,13.5,5.06s10.27-1.7,13.54-5.05c3.25-3.32,4.89-7.48,4.89-12.36s-1.69-9.29-5.02-12.65c-3.34-3.37-7.85-5.08-13.42-5.08h0Z"/>
    </g>
  </g>
</svg>