<?xml version="1.0" encoding="utf-8"?>
<!-- Generator: Adobe Illustrator 27.7.0, SVG Export Plug-In . SVG Version: 6.00 Build 0)  -->
<svg version="1.1" id="Layer_1" xmlns="http://www.w3.org/2000/svg" xmlns:xlink="http://www.w3.org/1999/xlink" x="0px" y="0px"
	 viewBox="0 0 160.1 160.4" style="enable-background:new 0 0 160.1 160.4;" xml:space="preserve">
<style type="text/css">
	.st0{fill:#EC0089;}
	.st1{fill:#EC0083;}
</style>
<g transform="translate(308.5999999999999 35.069999999999936) scale(0.92 0.92)">
	<path class="st0" d="M-243.8-37.8c44.6,2.2,79.9,37.9,82.4,82.2h-23.4c-2.5-31.5-27.6-56.5-59-58.8V-37.8"/>
	<path class="st0" d="M-253,136.2c-44.6-2.5-80.2-38.2-82.4-82.4h23.4c2.2,31.5,27.3,56.5,58.8,58.8L-253,136.2"/>
	<path class="st0" d="M-335.4,44.3c2.2-44.3,37.9-79.9,82.4-82.4v23.4c-31.5,2.5-56.5,27.6-59,59H-335.4L-335.4,44.3"/>
	<path class="st1" d="M-161.4,53.8c-2.5,44.3-37.9,79.9-82.4,82.4v-23.4c31.5-2.2,56.5-27.3,58.8-58.8L-161.4,53.8L-161.4,53.8"/>
	<path class="st0" d="M-246,5.6c22.3,1.1,40.1,18.9,41.2,41.2h-11.7c-1.4-15.9-13.9-28.4-29.5-29.5V5.6"/>
	<path class="st0" d="M-250.8,92.5c-22.3-1.1-40.1-18.9-41.2-41.2h11.7c1.1,15.6,13.6,28.4,29.5,29.5V92.5"/>
	<path class="st1" d="M-292,46.8c1.1-22.3,18.9-40.1,41.2-41.2v11.7c-15.6,1.1-28.1,13.6-29.5,29.5H-292L-292,46.8"/>
	<path class="st0" d="M-204.8,51.3c-1.1,22.3-18.9,40.1-41.2,41.2V80.8c15.6-1.1,28.1-13.6,29.5-29.5H-204.8L-204.8,51.3"/>
</g>
</svg>
