<?xml version="1.0" encoding="UTF-8"?>
<svg id="Layer_1" data-name="Layer 1" xmlns="http://www.w3.org/2000/svg" viewBox="0 0 1920 1080">
  <defs>
    <style>
      .cls-1 {
        fill: #ec0083;
      }

      .cls-1, .cls-2 {
        stroke-miterlimit: 10;
      }

      .cls-1, .cls-2, .cls-3 {
        stroke: #212529;
        stroke-width: 3.53px;
      }

      .cls-4 {
        fill: #212529;
      }

      .cls-2 {
        fill: #fff;
      }

      .cls-5 {
        fill: #ffc5e8;
      }

      .cls-3 {
        fill: none;
        stroke-linecap: round;
        stroke-linejoin: round;
      }
    </style>
  </defs>
  <circle class="cls-5" cx="960" cy="540" r="458.74"/>
  <path class="cls-1" d="m1246.74,821.76c0,3.3-2.23,6.49-6.39,9.5-18.78-13.6-76.87-23.5-145.61-23.5s-126.83,9.9-145.61,23.5c-4.16-3.01-6.39-6.2-6.39-9.5,0-18.23,68.05-33,152-33s152,14.77,152,33Z"/>
  <path d="m1240.35,831.26c-18.78,13.6-76.87,23.5-145.61,23.5s-126.83-9.9-145.61-23.5c18.78-13.6,76.87-23.5,145.61-23.5s126.83,9.9,145.61,23.5Z"/>
  <line class="cls-3" x1="439.5" y1="756.76" x2="1480.5" y2="756.76"/>
  <g>
    <polyline class="cls-4" points="1100.77 854.73 1116.59 789.1 1172.8 556.03 1176.03 542.64 1151.56 536.74 1148.33 550.12 1090.78 788.77 1074.93 854.49"/>
    <polygon class="cls-1" points="1317.92 219.56 1172.51 184.49 1044.9 262.52 1009.84 407.93 1087.86 535.54 1233.27 570.61 1360.89 492.58 1395.95 347.17 1317.92 219.56"/>
    <polygon class="cls-2" points="1307.4 234.01 1175.29 202.16 1059.36 273.05 1027.5 405.15 1098.39 521.09 1230.49 552.94 1346.43 482.06 1378.29 349.95 1307.4 234.01"/>
    <g>
      <path d="m1118.39,360.94l-21.12-5.09-3.45,14.3,24.79,5.98-2.13,8.84-35.79-8.63,12.87-53.39,35.72,8.61-2.15,8.91-24.71-5.96-3.07,12.73,21.12,5.09-2.08,8.62Z"/>
      <path d="m1147.41,371.74l-8.76-2.11-4.71,19.54-11-2.65,12.87-53.39,19.84,4.78c6.31,1.52,10.83,4.1,13.58,7.74,2.74,3.64,3.5,8.02,2.26,13.15-.88,3.64-2.4,6.49-4.56,8.54-2.16,2.05-5.02,3.41-8.57,4.08l6.29,24.6-.12.51-11.81-2.85-5.3-21.96Zm-6.62-11.02l8.87,2.14c2.76.67,5.07.48,6.93-.56,1.85-1.04,3.08-2.79,3.67-5.26.61-2.52.37-4.67-.71-6.46-1.08-1.79-3.1-3.04-6.06-3.75l-8.84-2.13-3.86,16.02Z"/>
      <path d="m1195.34,383.29l-8.76-2.11-4.71,19.54-11-2.65,12.87-53.39,19.84,4.78c6.31,1.52,10.83,4.1,13.58,7.74,2.74,3.64,3.5,8.02,2.26,13.15-.88,3.64-2.4,6.49-4.56,8.54-2.16,2.05-5.02,3.41-8.57,4.08l6.29,24.6-.12.51-11.81-2.85-5.3-21.96Zm-6.62-11.02l8.87,2.14c2.76.67,5.07.48,6.93-.56,1.85-1.04,3.08-2.79,3.67-5.26.61-2.52.37-4.67-.71-6.46-1.08-1.79-3.1-3.04-6.06-3.75l-8.84-2.13-3.86,16.02Z"/>
      <path d="m1268.79,394.72c-1.27,5.26-3.31,9.64-6.12,13.15-2.81,3.51-6.21,5.93-10.19,7.24-3.98,1.32-8.2,1.44-12.68.36s-8.12-3.08-11.07-6.05c-2.96-2.96-4.92-6.65-5.87-11.06-.95-4.41-.83-9.18.39-14.32l.64-2.64c1.27-5.26,3.33-9.65,6.19-13.19,2.86-3.54,6.27-5.96,10.25-7.27,3.97-1.31,8.19-1.42,12.64-.35s8.15,3.1,11.09,6.07c2.94,2.97,4.88,6.69,5.81,11.14.93,4.45.77,9.3-.5,14.53l-.57,2.38Zm-10.56-5.11c1.35-5.6,1.37-10.09.07-13.49-1.3-3.39-3.81-5.54-7.53-6.43s-6.89-.14-9.58,2.25c-2.7,2.39-4.73,6.36-6.09,11.9l-.63,2.6c-1.31,5.45-1.33,9.92-.05,13.41,1.28,3.49,3.8,5.69,7.57,6.6,3.69.89,6.88.13,9.55-2.29,2.68-2.42,4.7-6.4,6.06-11.94l.63-2.6Z"/>
      <path d="m1295.12,407.35l-8.76-2.11-4.71,19.54-11-2.65,12.87-53.39,19.84,4.78c6.31,1.52,10.83,4.1,13.58,7.74,2.74,3.64,3.5,8.02,2.26,13.15-.88,3.64-2.4,6.49-4.56,8.54-2.16,2.05-5.02,3.41-8.57,4.08l6.29,24.6-.12.51-11.81-2.85-5.3-21.96Zm-6.62-11.02l8.87,2.14c2.76.67,5.07.48,6.93-.56,1.85-1.04,3.08-2.79,3.67-5.26.61-2.52.37-4.67-.71-6.46-1.08-1.79-3.1-3.04-6.06-3.75l-8.84-2.13-3.86,16.02Z"/>
    </g>
  </g>
  <ellipse class="cls-1" cx="661.97" cy="832.92" rx="148.65" ry="35.08"/>
  <path class="cls-1" d="m661.97,656.17c-21.41,0-41.76-1.01-60.15-2.83l1.19-3.17,12.61-33.7,9.59-25.62,27.1-72.39c3.35-8.93,15.98-8.93,19.32,0l27.1,72.39,9.6,25.62,12.61,33.7,1.18,3.17c-18.39,1.82-38.74,2.83-60.15,2.83Z"/>
  <path class="cls-1" d="m753.5,737.14c-25.23,4.41-57.01,7.03-91.53,7.03s-66.29-2.62-91.52-7.03l1.5-4,7.65-20.44,1.71-4.57,9.85-26.3,1.67-4.46c20.65,2.43,44.18,3.8,69.14,3.8s48.49-1.37,69.14-3.8l1.67,4.46,9.85,26.3,1.71,4.57,7.66,20.44,1.5,4Z"/>
  <path class="cls-1" d="m784.39,820.32c.15.56.23,1.12.23,1.68,0,15.11-54.91,27.37-122.65,27.37s-122.65-12.26-122.65-27.37c0-.56.08-1.12.23-1.68h-.24l22.4-59.82c26.43,5.38,61.62,8.67,100.26,8.67s73.84-3.29,100.27-8.68l22.39,59.83h-.24Z"/>
  <path class="cls-2" d="m762.24,760.49c-26.43,5.39-61.63,8.68-100.27,8.68s-73.83-3.29-100.26-8.67l8.74-23.36c25.23,4.41,57,7.03,91.52,7.03s66.3-2.62,91.53-7.03l8.74,23.35Z"/>
  <path class="cls-2" d="m731.11,677.37c-20.65,2.43-44.18,3.8-69.14,3.8s-48.49-1.37-69.14-3.8l2.52-6.75,5.29-14.13,1.18-3.15c18.39,1.82,38.74,2.83,60.15,2.83s41.76-1.01,60.15-2.83l1.18,3.15,5.29,14.13,2.52,6.75Z"/>
</svg>