<svg xmlns="http://www.w3.org/2000/svg" version="1.1" xmlns:xlink="http://www.w3.org/1999/xlink" width="512" height="512" x="0" y="0" viewBox="0 0 512 512" style="enable-background:new 0 0 512 512" xml:space="preserve" class=""><g><path d="M498.5 76v360c0 34.462-28.038 62.5-62.5 62.5H248.5c-34.462 0-62.5-28.038-62.5-62.5V313.5c0-6.904 5.597-12.5 12.5-12.5s12.5 5.596 12.5 12.5V436c0 20.678 16.822 37.5 37.5 37.5H436c20.678 0 37.5-16.822 37.5-37.5V76c0-20.678-16.822-37.5-37.5-37.5H248.5C227.822 38.5 211 55.322 211 76v122.5c0 6.903-5.597 12.5-12.5 12.5s-12.5-5.597-12.5-12.5V76c0-34.462 28.038-62.5 62.5-62.5H436c34.462 0 62.5 28.038 62.5 62.5zM56.178 268.5H313.5c6.903 0 12.5-5.597 12.5-12.5s-5.597-12.5-12.5-12.5H56.178l59.979-59.979c4.881-4.881 4.881-12.796 0-17.678-4.882-4.882-12.796-4.882-17.678 0L17.162 247.16c-4.881 4.881-4.881 12.796 0 17.678l81.317 81.317c2.441 2.441 5.64 3.661 8.839 3.661s6.398-1.22 8.839-3.661c4.881-4.882 4.881-12.796 0-17.678z" fill="#ecf0f1" opacity="1" data-original="#000000"></path></g></svg>