<?xml version="1.0" encoding="UTF-8"?>
<svg id="Layer_1" data-name="Layer 1" xmlns="http://www.w3.org/2000/svg" viewBox="0 0 682.67 682.67">
  <defs>
    <style>
      .cls-1 {
        fill: #040404;
      }
    </style>
  </defs>
  <path class="cls-1" d="m550.85,43.68H131.82c-48.6,0-88.13,39.54-88.13,88.13v419.04c0,48.59,39.53,88.13,88.13,88.13h419.03c48.59,0,88.13-39.54,88.13-88.13V131.81c0-48.59-39.54-88.13-88.13-88.13ZM223.99,608.46h-92.17c-15.4,0-29.86-5.99-40.75-16.87-10.88-10.88-16.87-25.36-16.87-40.74V131.81c0-31.77,25.84-57.62,57.62-57.62h92.17v534.27Zm384.48-57.61c0,31.77-25.85,57.61-57.62,57.61H254.5V74.19h296.35c31.77,0,57.62,25.85,57.62,57.62v419.04Z"/>
</svg>