<?xml version="1.0" encoding="UTF-8"?>
<svg id="Layer_1" data-name="Layer 1" xmlns="http://www.w3.org/2000/svg" viewBox="0 0 682.67 682.67">
  <defs>
    <style>
      .cls-1 {
        fill: #040404;
      }
    </style>
  </defs>
  <path class="cls-1" d="m503.5,96v16.25h-35v-16.25c0-17.92-14.58-32.5-32.5-32.5H96c-17.92,0-32.5,14.58-32.5,32.5v340c0,17.92,14.58,32.5,32.5,32.5h17.5v35h-17.5c-37.22,0-67.5-30.28-67.5-67.5V96c0-37.22,30.28-67.5,67.5-67.5h340c37.22,0,67.5,30.28,67.5,67.5Z"/>
  <path class="cls-1" d="m586,178.5H246c-37.22,0-67.5,30.28-67.5,67.5v340c0,37.22,30.28,67.5,67.5,67.5h340c37.22,0,67.5-30.28,67.5-67.5V246c0-37.22-30.28-67.5-67.5-67.5Zm32.5,407.5c0,17.92-14.58,32.5-32.5,32.5H246c-17.92,0-32.5-14.58-32.5-32.5V246c0-17.92,14.58-32.5,32.5-32.5h340c17.92,0,32.5,14.58,32.5,32.5v340Z"/>
</svg>