<?xml version="1.0" encoding="UTF-8"?>
<svg id="Layer_1" data-name="Layer 1" xmlns="http://www.w3.org/2000/svg" xmlns:xlink="http://www.w3.org/1999/xlink" viewBox="0 0 1920 1080">
  <defs>
    <style>
      .cls-1 {
        stroke: #212529;
        stroke-width: 3.53px;
      }

      .cls-1, .cls-2, .cls-3 {
        stroke-miterlimit: 10;
      }

      .cls-1, .cls-4 {
        fill: #ec0083;
      }

      .cls-2 {
        fill: #282828;
      }

      .cls-2, .cls-3, .cls-5 {
        stroke: #282828;
        stroke-width: 5px;
      }

      .cls-6 {
        fill: none;
      }

      .cls-6, .cls-7, .cls-4, .cls-8, .cls-9, .cls-10, .cls-11 {
        stroke-width: 0px;
      }

      .cls-7 {
        fill: #ffc5e8;
      }

      .cls-3, .cls-10, .cls-5 {
        fill: #fff;
      }

      .cls-8 {
        fill: #6ea7f9;
      }

      .cls-8, .cls-10 {
        opacity: .25;
      }

      .cls-12 {
        clip-path: url(#clippath);
      }

      .cls-9 {
        fill: #212529;
      }

      .cls-5 {
        stroke-linecap: round;
        stroke-linejoin: round;
      }

      .cls-11 {
        fill: #e8e8e8;
      }
    </style>
    <clipPath id="clippath">
      <circle class="cls-6" cx="996.12" cy="539.65" r="139.63"/>
    </clipPath>
  </defs>
  <circle class="cls-7" cx="960" cy="540" r="459"/>
  <g>
    <rect class="cls-1" x="550" y="216.36" width="553" height="707" rx="34.4" ry="34.4" transform="translate(69.8 -89.87) rotate(6.5)"/>
    <rect class="cls-5" x="543" y="209.36" width="553" height="707" rx="34.4" ry="34.4" transform="translate(68.96 -89.12) rotate(6.5)"/>
    <rect class="cls-5" x="566" y="229.36" width="507" height="667" rx="25.85" ry="25.85" transform="translate(68.96 -89.12) rotate(6.5)"/>
    <rect class="cls-1" x="729.68" y="190.47" width="254.21" height="89" rx="34.4" ry="34.4" transform="translate(32.09 -95.45) rotate(6.5)"/>
    <rect class="cls-5" x="792.38" y="167.56" width="139.11" height="44.4" rx="22.2" ry="22.2" transform="translate(27.01 -96.32) rotate(6.5)"/>
    <rect class="cls-11" x="638.76" y="357.35" width="409" height="38" rx="19" ry="19" transform="translate(48.01 -93.01) rotate(6.5)"/>
    <rect class="cls-11" x="629.7" y="436.83" width="409" height="38" rx="19" ry="19" transform="translate(56.94 -91.48) rotate(6.5)"/>
    <rect class="cls-11" x="620.65" y="516.32" width="409" height="38" rx="19" ry="19" transform="translate(65.88 -89.94) rotate(6.5)"/>
    <rect class="cls-11" x="611.6" y="595.81" width="409" height="38" rx="19" ry="19" transform="translate(74.82 -88.4) rotate(6.5)"/>
  </g>
  <g>
    <path class="cls-3" d="m1105.87,625.97l149.5,149.5c6.47,6.47,6.47,16.95,0,23.43-6.48,6.47-16.96,6.47-23.43,0l-149.5-149.5"/>
    <rect class="cls-2" x="1189.33" y="657.37" width="55.29" height="206.27" rx="27.64" ry="27.64" transform="translate(-181.31 1083.28) rotate(-45)"/>
    <circle class="cls-8" cx="996.12" cy="539.65" r="139.63"/>
    <path class="cls-3" d="m996.12,376.6c-90.05,0-163.05,73-163.05,163.05s73,163.05,163.05,163.05c39.06,0,74.91-13.74,102.99-36.64,8.58-6.99,16.44-14.84,23.43-23.43,22.9-28.08,36.64-63.93,36.64-102.99,0-90.05-73-163.05-163.05-163.05Zm110.64,248.22c-7.35,9.56-15.92,18.13-25.48,25.48-23.56,18.17-53.1,28.99-85.16,28.99-77.11,0-139.63-62.52-139.63-139.63s62.52-139.63,139.63-139.63,139.63,62.52,139.63,139.63c0,32.06-10.81,61.6-28.99,85.16Z"/>
    <g class="cls-12">
      <g>
        <rect class="cls-10" x="819.01" y="542.46" width="413.26" height="45.92" transform="translate(-99.41 890.85) rotate(-45)"/>
        <rect class="cls-10" x="871.34" y="567.41" width="413.26" height="16.33" transform="translate(-91.27 930.82) rotate(-45)"/>
      </g>
    </g>
  </g>
  <g>
    <path class="cls-5" d="m1257.05,357v110.1c0,12.4-10.06,22.46-22.46,22.46h-15.32c-9.51,9.5-19.01,19.01-28.52,28.51,1.74-3.08,5.36-10.53,4.83-20.49-.16-2.98-.66-5.67-1.33-8.02h-136.58c-12.4,0-22.46-10.06-22.46-22.46v-110.1c0-12.4,10.06-22.46,22.46-22.46h176.92c12.4,0,22.46,10.06,22.46,22.46Z"/>
    <g>
      <path class="cls-4" d="m1148.49,458.65c-3.17,0-5.68-.94-7.46-2.79-1.76-1.83-2.66-4.12-2.66-6.82,0-2.87.94-5.25,2.79-7.06,1.84-1.81,4.31-2.73,7.34-2.73s5.57.94,7.42,2.8c1.84,1.86,2.77,4.21,2.77,6.99s-.91,4.99-2.7,6.83c-1.8,1.84-4.32,2.78-7.49,2.78Zm-9.09-26.78v-1.77c0-5.62.72-10.21,2.15-13.62,1.43-3.42,4.24-7.18,8.36-11.18,4.79-4.65,6.61-6.87,7.28-7.91,1.45-2.21,2.15-4.52,2.15-7.08,0-3.33-.79-5.87-2.36-7.53-1.56-1.65-3.86-2.46-7.04-2.46s-5.44.81-7.25,2.48c-1.77,1.63-2.63,3.82-2.63,6.69v1.77h-18.38l.02-1.79c.09-7.7,2.76-13.89,7.96-18.41,5.13-4.46,11.95-6.72,20.28-6.72s15.42,2.25,20.31,6.69c4.94,4.48,7.44,10.78,7.44,18.71,0,7.08-3.29,14.08-9.77,20.82l-7.49,7.38c-2.36,2.71-3.59,6.81-3.67,12.18l-.02,1.74h-17.36Z"/>
      <path class="cls-9" d="m1149.95,366.11c8.17,0,14.55,2.08,19.12,6.23,4.57,4.15,6.86,9.95,6.86,17.4,0,6.63-3.09,13.17-9.27,19.6l-7.5,7.39c-2.68,3.05-4.07,7.51-4.15,13.37h-13.85c0-5.41.67-9.73,2.01-12.94s4-6.75,7.96-10.59c3.96-3.85,6.47-6.58,7.53-8.21,1.63-2.48,2.44-5.16,2.44-8.04,0-3.82-.95-6.73-2.84-8.74-1.89-2.01-4.67-3.01-8.33-3.01s-6.31.98-8.45,2.95c-2.14,1.96-3.2,4.63-3.2,7.99h-14.82c.08-7.21,2.53-12.9,7.35-17.1,4.82-4.19,11.19-6.29,19.12-6.29m-1.46,74.91c2.6,0,4.66.76,6.16,2.28,1.5,1.52,2.26,3.43,2.26,5.74s-.73,4.09-2.2,5.59c-1.46,1.5-3.54,2.25-6.22,2.25s-4.75-.75-6.19-2.25c-1.44-1.5-2.17-3.36-2.17-5.59,0-2.39.75-4.32,2.26-5.8,1.5-1.48,3.54-2.22,6.1-2.22m1.46-78.44c-8.77,0-15.98,2.41-21.44,7.16-5.59,4.86-8.47,11.5-8.57,19.72l-.04,3.57h21.93v-3.53c0-2.38.66-4.1,2.06-5.39,1.47-1.36,3.45-2.02,6.06-2.02s4.55.62,5.75,1.9c1.24,1.32,1.87,3.45,1.87,6.32,0,2.2-.61,4.19-1.86,6.1-.64.98-2.36,3.08-7.04,7.62-4.35,4.22-7.22,8.07-8.76,11.77-1.54,3.69-2.29,8.36-2.29,14.3v3.53h20.87l.05-3.49c.07-4.91,1.14-8.61,3.19-11l7.4-7.29.03-.03.03-.04c6.81-7.08,10.26-14.5,10.26-22.05,0-8.45-2.7-15.19-8.02-20.02-5.22-4.74-12.46-7.14-21.5-7.14h0Zm-1.46,74.91c-3.51,0-6.4,1.09-8.58,3.23-2.2,2.16-3.31,4.96-3.31,8.32,0,3.16,1.06,5.87,3.16,8.04,2.13,2.21,5.07,3.33,8.74,3.33s6.6-1.11,8.75-3.31c2.12-2.17,3.2-4.89,3.2-8.06s-1.1-6.03-3.28-8.23c-2.19-2.21-5.1-3.33-8.67-3.33h0Z"/>
    </g>
  </g>
</svg>