<?xml version="1.0" encoding="UTF-8"?>
<svg id="Layer_1" data-name="Layer 1" xmlns="http://www.w3.org/2000/svg" viewBox="0 0 1080 1080">
  <path d="m902.4,591.74c-10.31,0-20.71-3.18-29.64-9.76l-158.85-117.17c-22.22-16.39-26.95-47.7-10.56-69.92s47.69-26.95,69.92-10.56l118.61,87.49,87.03-117.99c16.39-22.22,47.7-26.95,69.92-10.56,22.22,16.39,26.95,47.7,10.56,69.92l-116.71,158.23c-9.8,13.29-24.94,20.32-40.28,20.32Z"/>
  <path d="m486.5,1003.5c-62.55,0-123.26-12.26-180.43-36.44-55.2-23.35-104.76-56.76-147.31-99.31-42.55-42.55-75.96-92.11-99.31-147.31-24.18-57.17-36.44-117.88-36.44-180.43s12.26-123.26,36.44-180.43c23.35-55.2,56.76-104.76,99.31-147.31,42.55-42.55,92.11-75.96,147.31-99.31,57.17-24.18,117.88-36.44,180.43-36.44s123.26,12.26,180.43,36.44c55.2,23.35,104.76,56.76,147.31,99.31,42.55,42.55,75.96,92.11,99.31,147.31,24.18,57.17,36.44,117.88,36.44,180.43,0,27.61-22.39,50-50,50s-50-22.39-50-50c0-200.43-163.07-363.5-363.5-363.5S123,339.57,123,540s163.07,363.5,363.5,363.5c128.51,0,248.77-68.96,313.85-179.98,13.96-23.82,44.6-31.81,68.42-17.85,23.82,13.96,31.81,44.6,17.85,68.42-40.18,68.54-97.65,125.98-166.2,166.13-70.69,41.4-151.58,63.28-233.91,63.28Z"/>
</svg>