<?xml version="1.0" encoding="UTF-8"?>
<svg id="Layer_1" data-name="Layer 1" xmlns="http://www.w3.org/2000/svg" viewBox="0 0 682.67 682.67">
  <defs>
    <style>
      .cls-1 {
        fill: none;
        stroke: #fff;
        stroke-linecap: round;
        stroke-linejoin: round;
        stroke-width: 36.75px;
      }
    </style>
  </defs>
  <g>
    <path class="cls-1" d="m95.15,364.99c0-31.64,5.66-61.95,16.02-89.99"/>
    <path class="cls-1" d="m155.9,198.09c19.68-23.42,43.42-43.32,70.15-58.61"/>
  </g>
  <path class="cls-1" d="m483.9,139.75c77.95,44.79,130.44,128.89,130.44,225.24,0,143.37-116.23,259.6-259.6,259.6-115.15,0-212.79-74.97-246.77-178.77"/>
  <line class="cls-1" x1="354.74" y1="58.08" x2="354.74" y2="292.66"/>
  <path class="cls-1" d="m68.33,555.39c1.15-3.31,18.37-52.93,19.51-56.25,1.01-2.92,17.29-49.85,18.3-52.77,36.56,12.69,73.12,25.38,109.68,38.06"/>
</svg>