<?xml version="1.0" encoding="utf-8"?>
<!-- Generator: Adobe Illustrator 27.7.0, SVG Export Plug-In . SVG Version: 6.00 Build 0)  -->
<svg version="1.1" id="Layer_1" xmlns="http://www.w3.org/2000/svg" xmlns:xlink="http://www.w3.org/1999/xlink" x="0px" y="0px"
	 viewBox="0 0 512 512" style="enable-background:new 0 0 512 512;" xml:space="preserve">
<style type="text/css">
	.st0{fill:#ECF0F1;}
</style>
<path class="st0" d="M512,86.4v91.2c0,17.7-14.3,32-32,32h-91.2c-17.7,0-32-14.3-32-32s14.3-32,32-32h24.5C377.9,95,320,64,256,64
	c-79.6,0-149.8,47.9-178.9,122.1c-6.4,16.5-25,24.6-41.5,18.1c-16.5-6.4-24.6-25-18.1-41.5C36.1,115.3,68.1,74.8,110,45.7
	C153,15.8,203.5,0,256,0s103,15.8,146,45.7c17.1,11.9,32.5,25.6,46,40.9v-0.2c0-17.7,14.3-32,32-32S512,68.7,512,86.4z M476.3,307.8
	c-16.5-6.4-35,1.7-41.5,18.1C405.8,400.1,335.6,448,256,448c-62.6,0-119.5-29.7-155-78.4h22.2c17.7,0,32-14.3,32-32s-14.3-32-32-32
	H32c-17.7,0-32,14.3-32,32v91.2c0,17.7,14.3,32,32,32s32-14.3,32-32v-3.4c13.5,15.3,29,29.1,46,40.9c43,29.9,93.4,45.7,146,45.7
	s103-15.8,146-45.7c42-29.2,73.9-69.6,92.5-117.1C500.9,332.8,492.8,314.2,476.3,307.8L476.3,307.8z"/>
</svg>
