<?xml version="1.0" encoding="UTF-8"?>
<svg id="Layer_1" data-name="Layer 1" xmlns="http://www.w3.org/2000/svg" viewBox="0 0 682.67 682.67">
  <defs>
    <style>
      .cls-1 {
        fill: #ecf0f1;
      }
    </style>
  </defs>
  <path class="cls-1" d="m565.19,117.48c-59.8-59.79-139.29-92.72-223.85-92.72S177.28,57.69,117.49,117.48c-59.79,59.79-92.72,139.29-92.72,223.85s32.93,164.06,92.72,223.85c59.79,59.8,139.29,92.72,223.85,92.72s164.05-32.92,223.85-92.72c59.79-59.79,92.72-139.29,92.72-223.85s-32.94-164.05-92.72-223.85Zm-93.05-34.6c27.34,13.81,52.25,31.85,74.02,53.63,38.88,38.88,65.74,87.73,77.7,141.29l2.69,12.03-291.69-76.97,132.44-132.43,4.84,2.45Zm-24.49,287.09l-77.81,77.81-106.33-28.15-28.9-106.52,78.23-78.23,106.26,28.04,28.55,107.05ZM181.98,99.4c35.91-23.66,77.54-39.22,120.41-44.98,42.23-5.68,85.98-1.93,126.51,10.85l11.79,3.72-214.2,214.19-49.04-180.79,4.53-2.99ZM52.32,358.39c-4.83-82.67,25.86-163.54,84.19-221.88,2.62-2.62,5.46-5.34,8.7-8.32l9.09-8.38,79.17,291.87-180.83-47.87-.32-5.42Zm158.22,241.4c-27.35-13.81-52.25-31.86-74.03-53.63-38.95-38.95-65.83-87.9-77.76-141.57l-2.67-12.03,291.75,77.23-132.45,132.45-4.84-2.45Zm288.85-15.69c-35.8,23.32-77.24,38.62-119.84,44.24-12.56,1.66-25.26,2.48-37.96,2.48-29.77,0-59.58-4.52-87.81-13.43l-11.79-3.71,213.67-213.67,48.29,181.12-4.56,2.97Zm46.77-37.94c-3.1,3.1-6.32,6.17-9.85,9.39l-9.12,8.31-78.13-293.04,180.95,47.75.33,5.42c4.92,82.77-25.77,163.75-84.18,222.17Z"/>
</svg>