<?xml version="1.0" encoding="UTF-8"?>
<svg id="Layer_1" data-name="Layer 1" xmlns="http://www.w3.org/2000/svg" viewBox="0 0 682.67 682.67">
  <defs>
    <style>
      .cls-1 {
        fill: #040404;
        stroke-width: 0px;
      }
    </style>
  </defs>
  <g>
    <path class="cls-1" d="m442.92,505.39c-2.18,0-4.28-.66-6.07-1.91l-71.52-49.84c-2.84-1.97-4.54-5.23-4.54-8.69v-66.6c0-3.47,1.7-6.72,4.55-8.7l92.78-64.59c1.79-1.24,3.88-1.9,6.05-1.9s4.12.61,5.86,1.77l75.12,49.84c2.97,1.97,4.74,5.28,4.74,8.84v69.52c0,3.63-1.83,6.97-4.88,8.93l-96.37,61.68c-1.72,1.09-3.69,1.67-5.71,1.67Zm9.96-29.55l75.82-48.52v-45.96l-75.82,50.4v44.09Zm-21.19-1.8v-44.3l-49.7-32.6v42.27l49.7,34.64Zm12.11-61.7l29.97-19.92-50.31-37.42-32.53,22.64,52.87,34.69Zm48.72-32.38l26.12-17.36-54.31-36.04-22.53,15.68,50.72,37.72Z"/>
    <path class="cls-1" d="m227.74,446.58c-5.84,0-10.6-4.75-10.6-10.6,0-64.56,52.25-117.09,116.46-117.09,17.65,0,34.62,3.88,50.42,11.52,2.55,1.23,4.46,3.38,5.39,6.05.93,2.67.77,5.55-.46,8.1-1.75,3.64-5.5,5.99-9.54,5.99-1.61,0-3.16-.36-4.61-1.06-12.91-6.24-26.77-9.41-41.2-9.41-48.81,0-89.43,37.06-94.69,85.3h106.36c5.84,0,10.59,4.75,10.59,10.6s-4.75,10.6-10.6,10.6h-117.53Z"/>
    <path class="cls-1" d="m335.84,317.87c-38.76,0-70.29-31.54-70.29-70.3s31.53-70.29,70.29-70.29,70.31,31.53,70.31,70.29-31.54,70.3-70.31,70.3Zm0-119.4c-27.07,0-49.09,22.03-49.09,49.1s22.02,49.11,49.09,49.11,49.12-22.03,49.12-49.11-22.04-49.1-49.12-49.1Z"/>
  </g>
  <g>
    <path class="cls-1" d="m341.33,64.42c87.16,0,169.24,41.04,221.53,110.77h-110.77c-7.65,0-13.85,6.2-13.85,13.85s6.2,13.85,13.85,13.85h138.46c7.65,0,13.85-6.2,13.85-13.85V50.57c0-7.65-6.2-13.85-13.85-13.85s-13.85,6.2-13.85,13.85v97.89C469.93,18.46,277.98-.36,147.99,106.43c-70.31,57.75-111.12,143.92-111.26,234.91,0,7.65,6.2,13.85,13.85,13.85s13.85-6.2,13.85-13.85c0-152.94,123.98-276.92,276.92-276.92Z"/>
    <path class="cls-1" d="m632.1,327.49c-7.65,0-13.85,6.2-13.85,13.85,0,152.94-123.98,276.92-276.92,276.92-87.16,0-169.24-41.04-221.53-110.77h110.77c7.65,0,13.85-6.2,13.85-13.85s-6.2-13.85-13.85-13.85H92.11c-7.65,0-13.85,6.2-13.85,13.85v138.46c0,7.65,6.2,13.85,13.85,13.85s13.85-6.2,13.85-13.85v-97.89c106.78,130,298.73,148.82,428.73,42.03,70.31-57.76,111.12-143.92,111.26-234.91,0-7.65-6.2-13.85-13.85-13.85Z"/>
  </g>
</svg>