<?xml version="1.0" encoding="UTF-8"?>
<svg id="Layer_1" data-name="Layer 1" xmlns="http://www.w3.org/2000/svg" viewBox="0 0 682.67 682.67">
  <defs>
    <style>
      .cls-1 {
        fill: none;
        stroke: #040404;
        stroke-linecap: round;
        stroke-linejoin: round;
        stroke-width: 27px;
      }
    </style>
  </defs>
  <g>
    <path class="cls-1" d="m274.49,383.94c3.86-4.22,30.45-32.35,73-31.16,39.43,1.1,63.48,26.58,67.66,31.16"/>
    <path class="cls-1" d="m239.33,335.21c5.79-6.33,45.67-48.52,109.5-46.74,59.15,1.66,95.21,39.86,101.49,46.74"/>
    <path class="cls-1" d="m208.17,285.59c7.5-8.2,59.17-62.86,141.84-60.54,76.62,2.15,123.34,51.64,131.46,60.54"/>
    <circle class="cls-1" cx="344.77" cy="433.48" r="31.48"/>
  </g>
  <path class="cls-1" d="m654.63,347.36c0,13.59.02,27.18,0,40.77-.01,6.01-10.49,17.19-18.45,19.78-4.6,1.49-9.33,1.75-14.14,1.72-13.12-.07-26.25.11-39.37-.07-4.36-.06-7.27,1.11-8.66,5.57-4.71,15.06-10.57,29.67-18.17,43.52-1.95,3.56-.42,5.7,1.97,8.07,10.17,10.07,20.32,20.17,30.38,30.37,13.19,13.37,13.12,29.02-.07,42.21-16.37,16.37-32.73,32.74-49.1,49.1-13,12.98-28.6,13.19-41.62.4-10.05-9.86-20.07-19.76-29.82-29.91-3.51-3.65-6.44-4.55-11.1-1.88-12.68,7.24-26.22,12.64-40.18,16.83-5.29,1.59-7.09,4.42-6.98,9.82.29,14.07-.39,28.18.22,42.23.63,14.63-12.45,28.93-28.16,28.66-24.33-.42-48.68.1-73.02-.19-16.48-.2-27.63-11.6-27.97-28.2-.29-14.07-.39-28.16-.06-42.23.13-5.74-1.81-8.81-7.33-10.37-14.06-3.97-27.47-9.64-40.2-16.76-4.44-2.48-7.23-1.54-10.51,1.89-9.07,9.48-18.54,18.58-27.67,28-14,14.45-30.88,14.69-45.14.47-15.88-15.84-31.78-31.66-47.67-47.5-13.41-13.36-13.48-29.44-.17-42.8,9.77-9.8,19.46-19.69,29.43-29.28,3.39-3.27,4.47-5.96,2.02-10.48-7.18-13.23-13.21-27.01-17.23-41.57-1.22-4.42-3.83-6.02-8.35-5.97-13.84.17-27.68.11-41.52.04-20-.11-31.02-11.17-30.95-31.06.08-22.9.27-45.81.35-68.71.07-17.99,10.66-28.95,28.9-29.31,14.07-.27,28.16-.29,42.24,0,5.47.11,8.24-1.93,9.75-7.14,4.13-14.24,9.69-27.95,16.85-40.94,2.09-3.8,1.65-6.37-1.44-9.37-10.43-10.16-20.71-20.46-30.88-30.87-12.45-12.76-12.27-28.41.41-41.18,16.48-16.59,32.99-33.15,49.6-49.62,12.73-12.62,29.06-12.52,41.83.14,9.83,9.74,19.7,19.45,29.3,29.42,3.46,3.59,6.33,4.68,11.09,2.01,12.71-7.15,26.15-12.79,40.22-16.7,5.69-1.58,7.15-4.91,7.03-10.52-.3-14.27-.47-28.57.22-42.81.82-16.99,11.76-27.14,28.72-27.31,22.86-.22,45.72-.3,68.58-.1,21.89.2,31.58,10.33,31.64,32.41.04,13.34.13,26.68-.01,40.02-.04,3.92,1.29,6.27,5.09,7.45,15.06,4.71,29.7,10.5,43.48,18.22,3.74,2.1,6.08.86,8.7-1.83,9.17-9.39,18.58-18.54,27.7-27.98,15.07-15.59,31.09-15.77,46.53-.31,16.18,16.21,32.37,32.42,48.53,48.65,11.35,11.4,11.58,27.29.27,39.02-10.27,10.65-20.72,21.13-31.36,31.4-3.54,3.42-3.99,6.26-1.62,10.55,7.06,12.77,12.62,26.24,16.62,40.28,1.49,5.23,4.33,7.21,9.78,7.09,13.6-.28,27.2-.17,40.8-.03,19.23.21,30.17,11.21,30.29,30.37.08,12.17.01,24.34.01,36.51.13,0,.27,0,.4,0Z"/>
</svg>