<?xml version="1.0" encoding="UTF-8"?>
<svg id="Layer_1" data-name="Layer 1" xmlns="http://www.w3.org/2000/svg" viewBox="0 0 682.67 682.67">
  <defs>
    <style>
      .cls-1 {
        stroke-width: 0px;
      }

      .cls-2 {
        fill: none;
        stroke: #040404;
        stroke-miterlimit: 10;
        stroke-width: 60px;
      }
    </style>
  </defs>
  <line class="cls-2" x1="145.09" y1="101.8" x2="537.57" y2="544.53"/>
  <g id="Layer_2" data-name="Layer 2">
    <path class="cls-1" d="m178.58,139.59l55.74,62.87c-53.04,15.93-101.99,44.58-142.25,84.15-7.29,7.69-17.43,12.04-28.04,12.02-21.27.05-38.55-17.16-38.6-38.43-.02-9.89,3.76-19.41,10.56-26.59,40.97-41.26,89.62-73.06,142.59-94.02Z"/>
    <path class="cls-1" d="m645.15,288.15c-15.48,14.64-39.9,13.95-54.54-1.54-64.44-63.32-151.1-98.69-241.23-98.69-2.68,0-5.36.03-8.04.09-12.92-.3-25.78.13-38.53,1.27l-61.21-69.05c32.45-7.22,65.92-10.6,99.74-9.87,114.37-2.48,224.75,42.07,305.35,123.25,14.64,15.49,13.95,39.91-1.54,54.54Z"/>
    <path class="cls-1" d="m309.11,286.83l70.54,79.56c-58.16-10.31-119.6,3.05-169.26,40.08-6.6,5.13-14.75,7.84-23.11,7.7-12.07.08-23.47-5.51-30.81-15.1-6.06-8.24-8.71-18.5-7.39-28.65,1.45-10.1,6.89-19.2,15.09-25.27,43.26-33.17,93.5-52.61,144.94-58.32Z"/>
    <path class="cls-1" d="m526.22,399.07c-5.98,7.91-14.68,13.15-24.28,14.83l-110.37-124.5c45.1,7.88,88.75,26.46,126.94,55.75,8.21,6.07,13.64,15.17,15.1,25.27,1.32,10.15-1.33,20.41-7.39,28.65Z"/>
    <path class="cls-1" d="m341.34,580.86c-34.03.14-61.74-27.33-61.88-61.36-.14-34.03,27.33-61.74,61.36-61.88,34.03-.14,61.74,27.33,61.88,61.36.07,16.37-6.38,32.09-17.92,43.7-11.5,11.57-27.13,18.11-43.45,18.18Z"/>
  </g>
</svg>