<?xml version="1.0" encoding="UTF-8"?>
<svg id="Layer_1" data-name="Layer 1" xmlns="http://www.w3.org/2000/svg" viewBox="0 0 682.67 682.67">
  <defs>
    <style>
      .cls-1 {
        stroke-width: 0px;
      }
    </style>
  </defs>
  <g id="Layer_2" data-name="Layer 2">
    <path class="cls-1" d="m64.04,294.39c-21.27.05-38.55-17.16-38.6-38.43-.02-9.89,3.76-19.41,10.56-26.59,80.6-81.18,190.98-125.73,305.35-123.25,114.37-2.48,224.75,42.07,305.35,123.25,14.63,15.49,13.94,39.9-1.54,54.54-15.49,14.63-39.9,13.94-54.54-1.54h0c-66.35-65.2-156.27-100.77-249.27-98.6-93-2.17-182.92,33.4-249.27,98.6-7.29,7.69-17.44,12.04-28.04,12.02h0Z"/>
    <path class="cls-1" d="m495.41,410.25c-8.4.08-16.56-2.75-23.11-8.01-77.69-57.93-184.21-57.93-261.9,0-6.6,5.13-14.75,7.84-23.11,7.7-12.07.07-23.47-5.52-30.81-15.1-6.06-8.24-8.71-18.51-7.39-28.66,1.46-10.1,6.89-19.2,15.1-25.27,104.52-80.14,249.82-80.14,354.34,0,8.2,6.07,13.64,15.17,15.1,25.27,1.32,10.15-1.33,20.41-7.39,28.66-7.31,9.66-18.7,15.36-30.81,15.41Z"/>
    <path class="cls-1" d="m341.35,576.63c-34.03.14-61.74-27.33-61.88-61.36-.14-34.03,27.33-61.74,61.36-61.88,34.03-.14,61.74,27.33,61.88,61.36.07,16.37-6.38,32.09-17.92,43.7-11.5,11.57-27.13,18.11-43.45,18.18Z"/>
  </g>
</svg>